<svg version="1.0" xmlns="http://www.w3.org/2000/svg" width="48pt" height="48pt" viewBox="0 0 300.000000 300.000000" preserveAspectRatio="xMidYMid meet"><g transform="translate(0.000000,300.000000) scale(0.050000,-0.050000)" fill="#000000" stroke="none"><path d="M2827 4819 c-351 -63 -642 -275 -793 -579 -85 -171 -95 -455 -19 -557 25 -34 45 -64 45 -67 0 -3 -94 -6 -208 -6 -281 0 -408 -120 -301 -285 24 -36 34 -85 31 -149 -11 -250 172 -459 469 -534 l129 -32 -67 -140 c-37 -77 -105 -185 -151 -240 -424 -505 -245 -1064 328 -1025 694 48 996 889 506 1407 -177 187 -244 216 -528 228 -260 11 -327 36 -416 155 -54 72 -69 244 -23 270 19 10 47 50 63 87 28 66 30 67 145 64 263 -7 561 269 424 393 -47 42 -105 28 -158 -40 -102 -130 -169 160 -83 360 384 898 1902 464 1810 -517 -43 -450 -4 -626 261 -1186 234 -494 166 -786 -184 -786 -561 0 -842 1056 -408 1530 77 84 85 120 38 179 -189 240 -520 -470 -457 -980 86 -694 635 -1136 1095 -881 330 183 361 485 106 1042 -227 497 -284 724 -239 954 150 758 -615 1479 -1415 1335z m-284 -2271 c508 -373 232 -1235 -361 -1125 -312 59 -332 330 -51 687 103 131 229 374 229 441 0 92 54 91 183 -3z"/></g></svg>